<svg viewBox="-2.4 -2.4 28.80 28.80" xmlns="http://www.w3.org/2000/svg" fill="#ffffff" stroke="#ffffff"><g id="SVGRepo_bgCarrier" stroke-width="0" transform="translate(0.35999999999999943,0.35999999999999943), scale(0.97)"><rect x="-2.4" y="-2.4" width="28.80" height="28.80" rx="3.4560000000000004" fill="#307bff" strokewidth="0"></rect></g><g id="SVGRepo_tracerCarrier" stroke-linecap="round" stroke-linejoin="round" stroke="#CCCCCC" stroke-width="1.2"> <rect x="0" fill="none" width="24" height="24"></rect> <g> <path d="M16 19H3v-2h13v2zm5-10H3v2h18V9zM3 5v2h11V5H3zm14 0v2h4V5h-4zm-6 8v2h10v-2H11zm-8 0v2h5v-2H3z"></path> </g> </g><g id="SVGRepo_iconCarrier"> <rect x="0" fill="none" width="24" height="24"></rect> <g> <path d="M16 19H3v-2h13v2zm5-10H3v2h18V9zM3 5v2h11V5H3zm14 0v2h4V5h-4zm-6 8v2h10v-2H11zm-8 0v2h5v-2H3z"></path> </g> </g></svg>